# xmcd
# 
# Track frame offsets:
#     150
#     12456
#     25640
#     38707
#     51436
#     65158
#     77607
#     90677
#     101382
#     117208
#     130373
#     142489
#     157853
#     170978
#     183427
#     197445
#     207868
#     220809
#     233207
#     248160
# 
# Disc length: 3482
# 
# Revision: 2
# Processed by: cddbd v1.5.2PL0 Copyright (c) Steve Scherf et al.
# Submitted via: BonkEnc v1.0.8
# 
DISCID=1d0d9814
DTITLE=200 Blues Songs - Goin' Mad Blues [CD 10)
DYEAR=0
DGENRE=Blues
TTITLE0=Memphis Slim - Blues At Midnight
TTITLE1=Hot Lips Page - Just Another Woman
TTITLE2=Blind Boy Fuller and Sonny Terry - Blowin' The Blues
TTITLE3=Big Bill Broonzy - Long Tall Mama
TTITLE4=Bessie Smith - Sweet Mistreater
TTITLE5=Leadbelly - Eagle Rock Rag
TTITLE6=Kokomo Arnold - Broke Man Blues
TTITLE7=Sleepy John Estes - Mary Come On Home
TTITLE8=John Lee 'Sonny Boy' Williamson - Decoration Blues
TTITLE9=Blind Willie McTell - Love-Makin' Mama
TTITLE10=Charlie Patton - Revenue Man Blues
TTITLE11=Mississippi John Hurt - Frankie
TTITLE12=Blind Boy Fuller - Woman, I'm Done
TTITLE13=Casey Bill Weldon - Go Ahead, Buddy
TTITLE14=Arthur 'Big Boy' Crudup - Dirt Road Blues
TTITLE15=Lightnin' Hopkins - You're Gonna Miss Me
TTITLE16=Robert Johnson - Kindhearted Woman Blues
TTITLE17=Jimmy Yancey - Five O'Clock Blues
TTITLE18=Big Joe Williams - Little Leg Woman
TTITLE19=Big Joe Turner - Somebody's Got To Go
EXTD=
EXTT0=
EXTT1=
EXTT2=
EXTT3=
EXTT4=
EXTT5=
EXTT6=
EXTT7=
EXTT8=
EXTT9=
EXTT10=
EXTT11=
EXTT12=
EXTT13=
EXTT14=
EXTT15=
EXTT16=
EXTT17=
EXTT18=
EXTT19=
PLAYORDER=
